<svg version="1.1" id="icon-search" xmlns="http://www.w3.org/2000/svg" xmlns:xlink="http://www.w3.org/1999/xlink" x="0px" y="0px"
   width="45px" height="45px" viewBox="0 0 45 45" enable-background="new 0 0 45 45" xml:space="preserve" aria-labelledby="search-title">
   <title id="search-title">Find snowfall for your town</title>
<path d="M44.103,39.776l-9.03-9.029c5.503-7.577,4.841-18.239-1.991-25.071C29.298,1.892,24.338,0,19.378,0S9.459,1.892,5.675,5.676
  c-7.567,7.568-7.567,19.838,0,27.406c3.784,3.783,8.743,5.676,13.703,5.676c3.995,0,7.987-1.229,11.368-3.685l9.029,9.03
  C40.373,44.701,41.157,45,41.939,45c0.783,0,1.567-0.299,2.164-0.896C45.298,42.909,45.298,40.971,44.103,39.776z M8.705,30.054
  c-5.886-5.887-5.886-15.463,0-21.349c2.851-2.851,6.643-4.422,10.674-4.422c4.032,0,7.823,1.57,10.675,4.422
  c5.885,5.886,5.885,15.462,0,21.349c-2.852,2.85-6.643,4.421-10.675,4.421C15.347,34.475,11.556,32.903,8.705,30.054z"/>
</svg>
